<svg width="238" height="217" viewBox="0 0 238 217" fill="none" xmlns="http://www.w3.org/2000/svg">
<g clip-path="url(#clip0_12_1094)">
<path fill-rule="evenodd" clip-rule="evenodd" d="M113.745 69.1543L79.5833 103.513H162.074V155.48H113.745V103.513H79.5833V179.783C79.5833 185.34 84.0604 189.846 89.5802 189.846H185.407C190.927 189.846 195.397 185.34 195.397 179.783V158.127L217.337 176.211C218.077 176.788 218.965 177.145 219.898 177.242C220.831 177.339 221.773 177.172 222.616 176.759C223.458 176.346 224.168 175.704 224.663 174.907C225.159 174.11 225.42 173.19 225.417 172.251V87.5876C225.421 86.6373 225.155 85.7054 224.65 84.9008C224.144 84.0963 223.419 83.4525 222.561 83.0447C221.703 82.637 220.746 82.4822 219.803 82.5984C218.86 82.7147 217.969 83.0972 217.235 83.7011L195.404 101.704V79.2095C195.404 73.6532 190.927 69.147 185.407 69.147L113.745 69.1543Z" fill="#C50F26"/>
</g>
<path d="M32.8186 136.607C28.0856 136.607 23.04 135.893 17.6819 134.464C12.413 132.946 7.81396 130.713 3.88465 127.767C2.81303 126.873 2.32186 126.025 2.41117 125.221C2.50047 124.328 2.81303 123.301 3.34884 122.14L7.09954 113.835C7.72466 112.496 8.43908 111.603 9.2428 111.156C10.1358 110.71 11.0735 110.799 12.0558 111.424C14.467 112.764 17.3693 113.969 20.7628 115.041C24.2456 116.023 27.8624 116.514 31.6131 116.514C35.2745 116.514 38.3107 115.711 40.7219 114.103C43.1331 112.496 44.3387 110.353 44.3387 107.673C44.3387 105.352 43.4903 103.387 41.7935 101.78C40.1861 100.083 37.1945 99.2344 32.8186 99.2344H19.8251C16.253 99.2344 14.467 97.4483 14.467 93.8762V85.839C14.467 82.2669 16.253 80.4809 19.8251 80.4809H25.1833C31.0772 80.4809 35.4084 79.6772 38.1768 78.0697C40.9452 76.373 42.3293 74.0065 42.3293 70.9702C42.3293 68.4697 41.2131 66.639 38.9805 65.4781C36.8372 64.3171 33.9349 63.7367 30.2735 63.7367C26.9693 63.7367 23.7991 64.3171 20.7628 65.4781C17.7265 66.5497 15.0921 67.7106 12.8595 68.9609C11.8772 69.586 10.9395 69.6753 10.0465 69.2288C9.2428 68.7823 8.52838 67.8892 7.90326 66.5497L4.15256 58.2446C3.61675 56.9943 3.30419 55.9674 3.21489 55.1636C3.12558 54.3599 3.61675 53.5115 4.68838 52.6185C8.34978 49.7608 12.5916 47.5729 17.414 46.0548C22.2363 44.4474 27.2372 43.6436 32.4168 43.6436C41.7042 43.6436 48.8931 45.7869 53.9833 50.0734C59.1628 54.2706 61.7526 59.7627 61.7526 66.5497C61.7526 71.4613 60.547 75.6585 58.1359 79.1413C55.7247 82.6241 52.3759 85.5265 48.0894 87.8483C53.3582 89.7237 57.2875 92.6707 59.8773 96.6893C62.467 100.708 63.7619 105.218 63.7619 110.219C63.7619 115.22 62.5563 119.729 60.1452 123.748C57.8233 127.767 54.3405 130.937 49.6968 133.259C45.1424 135.491 39.5163 136.607 32.8186 136.607Z" fill="#C50F26"/>
<defs>
<clipPath id="clip0_12_1094">
<rect width="175" height="175" fill="white" transform="translate(63 42)"/>
</clipPath>
</defs>
</svg>
