<svg width="54" height="54" viewBox="0 0 54 54" fill="none" xmlns="http://www.w3.org/2000/svg">
<path d="M27.09 4.50012C14.805 4.50012 4.7925 14.5126 4.7925 26.7976C4.7925 30.7351 5.8275 34.5601 7.7625 37.9351L4.6125 49.5001L16.425 46.3951C19.6875 48.1726 23.355 49.1176 27.09 49.1176C39.375 49.1176 49.3875 39.1051 49.3875 26.8201C49.3875 20.8576 47.07 15.2551 42.8625 11.0476C40.7994 8.96436 38.3423 7.31255 35.6344 6.18844C32.9265 5.06433 30.0219 4.49041 27.09 4.50012ZM27.1125 8.25762C32.0625 8.25762 36.6975 10.1926 40.2075 13.7026C41.9296 15.425 43.295 17.4703 44.2255 19.7212C45.156 21.9721 45.6333 24.3845 45.63 26.8201C45.63 37.0351 37.305 45.3376 27.09 45.3376C23.76 45.3376 20.4975 44.4601 17.6625 42.7501L16.9875 42.3676L9.9675 44.2126L11.835 37.3726L11.385 36.6526C9.52773 33.7015 8.54476 30.2845 8.55 26.7976C8.5725 16.5826 16.875 8.25762 27.1125 8.25762ZM19.1925 16.4926C18.8325 16.4926 18.225 16.6276 17.7075 17.1901C17.2125 17.7526 15.75 19.1251 15.75 21.8476C15.75 24.5926 17.7525 27.2251 18 27.6076C18.315 27.9901 21.96 33.6151 27.5625 36.0001C28.89 36.6076 29.925 36.9451 30.735 37.1926C32.0625 37.6201 33.2775 37.5526 34.245 37.4176C35.325 37.2601 37.53 36.0676 38.0025 34.7626C38.475 33.4576 38.475 32.3551 38.34 32.1076C38.1825 31.8826 37.8225 31.7476 37.26 31.5001C36.6975 31.1851 33.9525 29.8351 33.4575 29.6551C32.94 29.4751 32.625 29.3851 32.1975 29.9251C31.8375 30.4876 30.7575 31.7476 30.4425 32.1076C30.105 32.4901 29.79 32.5351 29.25 32.2651C28.665 31.9726 26.865 31.3876 24.75 29.4976C23.085 28.0126 21.9825 26.1901 21.645 25.6276C21.375 25.0876 21.6225 24.7501 21.8925 24.5026C22.14 24.2551 22.5 23.8501 22.725 23.5126C23.0175 23.1976 23.1075 22.9501 23.2875 22.5901C23.4675 22.2076 23.3775 21.8926 23.2425 21.6226C23.1075 21.3751 21.9825 18.5851 21.51 17.4826C21.06 16.4026 20.61 16.5376 20.25 16.5151C19.935 16.5151 19.575 16.4926 19.1925 16.4926Z" fill="#F7BC0F"/>
</svg>
