<svg width="238" height="217" viewBox="0 0 238 217" fill="none" xmlns="http://www.w3.org/2000/svg">
<g clip-path="url(#clip0_12_1088)">
<path d="M92.1667 187.833C88.1563 187.833 84.7243 186.407 81.8708 183.553C79.0174 180.7 77.5882 177.265 77.5833 173.25V85.7501C77.5833 81.7397 79.0125 78.3077 81.8708 75.4542C84.7292 72.6008 88.1611 71.1716 92.1667 71.1667H208.833C212.844 71.1667 216.278 72.5959 219.136 75.4542C221.995 78.3126 223.422 81.7445 223.417 85.7501V173.25C223.417 177.26 221.99 180.695 219.136 183.553C216.283 186.412 212.849 187.838 208.833 187.833H92.1667ZM150.5 135.516C151.108 135.516 151.747 135.423 152.418 135.239C153.089 135.054 153.725 134.782 154.328 134.422L205.917 102.156C206.889 101.549 207.618 100.79 208.104 99.8813C208.59 98.9723 208.833 97.9685 208.833 96.8699C208.833 94.4393 207.8 92.6164 205.734 91.4011C203.668 90.1858 201.542 90.2466 199.354 91.5834L150.5 122.208L101.646 91.5834C99.4583 90.2466 97.3316 90.2174 95.2656 91.4959C93.1997 92.7744 92.1667 94.5657 92.1667 96.8699C92.1667 98.0852 92.4097 99.1497 92.8958 100.064C93.382 100.978 94.1111 101.675 95.0833 102.156L146.672 134.422C147.28 134.787 147.919 135.061 148.59 135.246C149.26 135.431 149.897 135.521 150.5 135.516Z" fill="#C50F26"/>
</g>
<path d="M61.4847 135H8.03722C4.46512 135 2.67907 133.214 2.67907 129.642V119.997C2.76837 116.514 3.79535 113.389 5.76001 110.62C7.81396 107.763 10.4037 105.173 13.5293 102.851C16.6549 100.44 19.9591 98.1628 23.4419 96.0195C27.014 93.8762 30.3182 91.733 33.3545 89.5897C36.48 87.3572 39.0252 85.0353 40.9898 82.6241C42.9545 80.213 43.9368 77.5785 43.9368 74.7209C43.9368 70.7023 42.8652 67.8892 40.7219 66.2818C38.5786 64.585 35.8549 63.7367 32.5507 63.7367C29.7824 63.7367 27.1033 64.0492 24.5135 64.6743C22.013 65.2995 19.5126 66.1925 17.0121 67.3534C15.0475 68.2464 13.4847 68.6037 12.3237 68.4251C11.2521 68.1571 10.4037 67.3981 9.77861 66.1478L5.76001 57.4409C5.22419 56.2799 4.91163 55.2529 4.82233 54.3599C4.73303 53.3776 5.22419 52.5292 6.29582 51.8148C10.0465 49.225 14.4223 47.2157 19.4233 45.7869C24.4242 44.3581 29.2019 43.6436 33.7563 43.6436C43.401 43.6436 50.7238 46.2781 55.7247 51.5469C60.8149 56.7264 63.3601 63.5134 63.3601 71.9078C63.3601 76.1051 62.7349 79.8558 61.4847 83.1599C60.2345 86.3748 58.5377 89.2325 56.3945 91.733C54.2512 94.2334 51.8401 96.5107 49.161 98.5646C46.5712 100.619 43.8921 102.539 41.1238 104.325C38.3554 106.021 35.721 107.718 33.2205 109.415C30.72 111.112 28.4875 112.942 26.5228 114.907H61.4847C65.0568 114.907 66.8429 116.693 66.8429 120.265V129.642C66.8429 133.214 65.0568 135 61.4847 135Z" fill="#C50F26"/>
<defs>
<clipPath id="clip0_12_1088">
<rect width="175" height="175" fill="white" transform="translate(63 42)"/>
</clipPath>
</defs>
</svg>
