<svg width="54" height="54" viewBox="0 0 54 54" fill="none" xmlns="http://www.w3.org/2000/svg">
<path d="M27 4.58984C14.625 4.58984 4.5 14.6923 4.5 27.1348C4.5 38.3848 12.735 47.7223 23.49 49.4098V33.6598H17.775V27.1348H23.49V22.1623C23.49 16.5148 26.8425 13.4098 31.995 13.4098C34.4475 13.4098 37.0125 13.8373 37.0125 13.8373V19.3948H34.1775C31.3875 19.3948 30.51 21.1273 30.51 22.9048V27.1348H36.765L35.7525 33.6598H30.51V49.4098C35.812 48.5725 40.64 45.8672 44.1223 41.7825C47.6047 37.6977 49.512 32.5025 49.5 27.1348C49.5 14.6923 39.375 4.58984 27 4.58984Z" fill="#F7BC0F"/>
</svg>
