<svg width="238" height="217" viewBox="0 0 238 217" fill="none" xmlns="http://www.w3.org/2000/svg">
<path d="M190.604 93.0417C190.608 99.4422 189.316 105.777 186.805 111.665C182.197 109.111 177.016 107.771 171.748 107.771H170.625V93.5521C170.625 89.9517 169.916 86.3866 168.538 83.0602C167.16 79.7339 165.141 76.7115 162.595 74.1656C160.049 71.6197 157.027 69.6002 153.7 68.2224C150.374 66.8446 146.809 66.1355 143.208 66.1355C139.608 66.1355 136.043 66.8446 132.716 68.2224C129.39 69.6002 126.368 71.6197 123.822 74.1656C121.276 76.7115 119.256 79.7339 117.879 83.0602C116.501 86.3866 115.792 89.9517 115.792 93.5521V131.709C109.158 127.005 103.847 120.673 100.368 113.323C96.8892 105.972 95.3603 97.8503 95.9282 89.738C96.4962 81.6257 99.1419 73.796 103.611 67.0019C108.08 60.2077 114.222 54.6778 121.446 50.9438C128.67 47.2099 136.734 45.3976 144.861 45.6812C152.988 45.9648 160.906 48.3348 167.852 52.5632C174.799 56.7916 180.54 62.7362 184.525 69.8253C188.51 76.9144 190.603 84.9095 190.604 93.0417Z" fill="#C50F26"/>
<path d="M171.748 118.708C175.309 118.707 178.806 119.651 181.883 121.443L208.308 136.872C212.291 139.201 215.352 142.828 216.979 147.144C218.607 151.461 218.701 156.206 217.248 160.584L204.247 199.595C202.911 203.596 200.351 207.077 196.93 209.545C193.508 212.012 189.398 213.342 185.179 213.347H133.51C130.432 213.345 127.394 212.637 124.632 211.277C121.87 209.916 119.457 207.941 117.578 205.501L86.2385 164.719L93.1656 154.328C94.6684 152.077 96.804 150.321 99.3032 149.282C101.802 148.242 104.553 147.966 107.209 148.488L126.729 152.345V93.5522C126.729 89.1816 128.465 84.9901 131.556 81.8996C134.646 78.8092 138.838 77.073 143.208 77.073C147.579 77.073 151.77 78.8092 154.861 81.8996C157.951 84.9901 159.688 89.1816 159.688 93.5522V118.708H171.748Z" fill="#C50F26"/>
<path d="M55.5908 135H8.70699C6.11722 135 4.46512 134.107 3.7507 132.321C3.5721 132.053 3.43814 131.74 3.34884 131.383C3.34884 131.026 3.34884 130.669 3.34884 130.312V119.595C3.34884 116.47 5.13489 114.907 8.70699 114.907H20.093C21.1647 114.907 21.8791 114.728 22.2363 114.371C22.5935 113.925 22.7721 113.121 22.7721 111.96V70.8362L10.5823 76.4623C10.1358 76.6409 9.73396 76.8195 9.37675 76.9981C9.01954 77.0874 8.70698 77.132 8.43908 77.132C6.47442 77.3999 5.4921 76.1051 5.4921 73.2474V64.9423V58.7804C5.4921 57.7088 5.5814 56.8604 5.76001 56.2353C5.93861 55.5209 6.42977 54.8957 7.2335 54.3599C7.5014 54.092 7.76931 53.8688 8.03722 53.6901C8.39443 53.5115 8.79629 53.3329 9.2428 53.1543L24.6475 46.0548C24.7368 45.9655 24.7814 45.9208 24.7814 45.9208C24.8707 45.9208 24.96 45.9208 25.0493 45.9208C25.4958 45.6529 25.9424 45.4743 26.3889 45.385C26.9247 45.2957 27.5051 45.2511 28.1303 45.2511C28.4875 45.2511 28.8 45.2511 29.0679 45.2511C29.4251 45.2511 29.7824 45.2511 30.1396 45.2511H36.1675C39.0252 45.2511 40.7219 46.3674 41.2577 48.5999C41.347 48.9571 41.3917 49.3143 41.3917 49.6715C41.481 49.9395 41.5256 50.252 41.5256 50.6092V111.96C41.5256 113.121 41.7042 113.925 42.0614 114.371C42.4186 114.728 43.1331 114.907 44.2047 114.907H55.5908C56.0373 114.907 56.4391 114.952 56.7963 115.041C57.2428 115.041 57.6447 115.086 58.0019 115.175C59.9666 115.8 60.9489 117.273 60.9489 119.595V126.025V130.312C60.9489 130.669 60.9042 131.026 60.8149 131.383C60.8149 131.74 60.7256 132.053 60.547 132.321C59.8326 134.107 58.1805 135 55.5908 135Z" fill="#C50F26"/>
</svg>
