<?xml version="1.0" encoding="UTF-8"?>
<svg id="Warstwa_2" data-name="Warstwa 2" xmlns="http://www.w3.org/2000/svg" viewBox="0 0 1000.05 277.86">
  <defs>
    <style>
      .cls-1 {
        fill: #171812;
      }

      .cls-2 {
        fill: #8e430a;
      }

      .cls-3 {
        fill: #070804;
      }

      .cls-4 {
        fill: #181813;
      }

      .cls-5 {
        fill: #10120c;
      }

      .cls-6 {
        fill: #602f0a;
      }

      .cls-7 {
        fill: #060703;
      }

      .cls-8 {
        fill: #66320b;
      }

      .cls-9 {
        fill: #8d420a;
      }

      .cls-10 {
        fill: #602f0b;
      }

      .cls-11 {
        fill: #5f2e0a;
      }

      .cls-12 {
        fill: #8f440b;
      }

      .cls-13 {
        fill: #f7bc0f;
      }

      .cls-14 {
        fill: #090b07;
      }

      .cls-15 {
        fill: #64310b;
      }

      .cls-16 {
        fill: #13140f;
      }

      .cls-17 {
        fill: #62300a;
      }

      .cls-18 {
        fill: #0d0f09;
      }

      .cls-19 {
        fill: #e2e2e1;
      }

      .cls-20 {
        fill: #c9a66b;
      }

      .cls-21 {
        fill: #4c270c;
      }

      .cls-22 {
        fill: #4f290c;
      }

      .cls-23 {
        fill: #e5e4e3;
      }

      .cls-24 {
        fill: #0b0d08;
      }

      .cls-25 {
        fill: #65310a;
      }

      .cls-26 {
        fill: #24231c;
      }

      .cls-27 {
        fill: #602e0b;
      }

      .cls-28 {
        fill: #161611;
      }

      .cls-29 {
        fill: #8c410a;
      }

      .cls-30 {
        fill: #49260b;
      }

      .cls-31 {
        fill: #522a0b;
      }

      .cls-32 {
        fill: #8c420a;
      }

      .cls-33 {
        fill: #090b06;
      }
    </style>
  </defs>
  <g id="Warstwa_1-2" data-name="Warstwa 1">
    <g>
      <path class="cls-13" d="M398.46,114.48h-6.26c-2.57,0-3.85-1.28-3.85-3.85v-24.36l-24.45,1.73v20.7c0,2.57-1.29,3.85-3.85,3.85h-6.26c-2.57,0-3.85-1.28-3.85-3.85v-58.72c0-2.57,1.28-3.85,3.85-3.85h6.26c2.57,0,3.85,1.29,3.85,3.85v24.07l24.45-1.73v-20.41c0-2.57,1.28-3.85,3.85-3.85h6.26c2.57,0,3.85,1.28,3.85,3.85v58.73c0,2.57-1.28,3.85-3.85,3.85Z"/>
      <path class="cls-13" d="M429.74,110.63c0,2.57-1.28,3.85-3.85,3.85h-6.26c-2.57,0-3.85-1.28-3.85-3.85v-60.65c0-2.57,1.28-3.85,3.85-3.85h6.26c2.57,0,3.85,1.29,3.85,3.85v60.65Z"/>
      <path class="cls-13" d="M470.27,95.71c0-1.6-.69-3.05-2.07-4.33-1.38-1.28-3.16-2.5-5.34-3.66-2.18-1.16-4.48-2.38-6.88-3.66s-4.7-2.78-6.88-4.48c-2.18-1.7-3.96-3.71-5.34-6.02-1.38-2.31-2.07-5.04-2.07-8.18,0-5.52,1.8-9.98,5.39-13.38,3.59-3.4,8.6-5.1,15.02-5.1,1.86,0,3.8.19,5.82.58s3.98.91,5.87,1.59c1.89.67,3.54,1.49,4.96,2.45,1.09.71,1.75,1.4,1.97,2.07.22.67.08,1.56-.43,2.65l-2.7,5.87c-.45.9-.98,1.46-1.59,1.69-.61.23-1.49.11-2.65-.34-1.8-.83-3.71-1.56-5.73-2.17-2.02-.61-3.87-.91-5.54-.91-1.8,0-3.32.31-4.57.91-1.25.61-1.88,1.65-1.88,3.13s.69,2.84,2.07,4.09c1.38,1.25,3.16,2.47,5.34,3.66,2.18,1.19,4.48,2.44,6.88,3.75,2.41,1.32,4.7,2.83,6.88,4.52,2.18,1.7,3.96,3.68,5.34,5.92,1.38,2.25,2.07,4.88,2.07,7.89,0,6.03-1.91,10.78-5.73,14.25-3.82,3.47-9.1,5.2-15.84,5.2-2.38,0-4.85-.26-7.41-.77-2.57-.51-5.05-1.25-7.46-2.21-2.41-.96-4.57-2.12-6.5-3.46-1.03-.77-1.68-1.46-1.97-2.07-.29-.61-.14-1.49.43-2.65l2.79-5.78c.51-.96,1.06-1.59,1.64-1.88.58-.29,1.44-.11,2.6.53,2.82,1.54,5.73,2.73,8.71,3.56s5.57,1.25,7.75,1.25c2.05,0,3.74-.3,5.05-.92,1.32-.61,1.97-1.81,1.97-3.61Z"/>
      <path class="cls-13" d="M533.62,112.55h-39.09c-2.57,0-3.85-1.28-3.85-3.85v-6.74c0-1.16.26-2.05.77-2.7l.29-.38,25.7-36.39h-21.95c-2.57,0-3.85-1.28-3.85-3.85v-6.74c0-2.57,1.28-3.85,3.85-3.85h36.2c2.57,0,3.85,1.28,3.85,3.85v6.74c0,.77-.16,1.48-.48,2.12-.06.19-.16.4-.29.63-.13.22-.26.43-.38.62l-25.7,36.1h24.93c2.57,0,3.85,1.29,3.85,3.85v6.74c0,2.57-1.28,3.85-3.85,3.85Z"/>
      <path class="cls-13" d="M557.88,114.48h-6.26c-2.57,0-3.85-1.28-3.85-3.85v-58.73c0-2.57,1.28-3.85,3.85-3.85h15.21c5.45,0,10.33.8,14.63,2.41,4.3,1.61,7.68,4.21,10.16,7.8,2.47,3.59,3.71,8.41,3.71,14.44,0,5.46-1.32,9.92-3.95,13.38-2.63,3.46-6.13,6.11-10.49,7.94-4.37,1.83-9.11,3-14.25,3.51l-4.91.48v12.61c0,2.57-1.28,3.85-3.85,3.85ZM567.22,62.49h-5.49v21.08l5.29-.48c2.5-.26,4.85-.79,7.03-1.59,2.18-.8,3.95-1.94,5.29-3.42,1.35-1.48,2.02-3.27,2.02-5.39,0-2.63-.66-4.68-1.97-6.16-1.32-1.48-3.05-2.52-5.2-3.13-2.15-.61-4.48-.92-6.98-.92Z"/>
      <path class="cls-13" d="M610.15,111.49c-.64,1.99-1.4,3.21-2.26,3.66-.87.45-2.13.51-3.8.19l-5.68-1.15c-1.8-.39-2.84-.98-3.13-1.78-.29-.8-.14-2.07.43-3.8l18.58-56.7c.58-1.67,1.19-2.73,1.83-3.18.64-.45,1.57-.67,2.79-.67h8.28c.83,0,1.41.08,1.73.24.32.16.59.51.82,1.06.22.55.59,1.4,1.11,2.55l26.38,54.97c.83,1.73,1.04,3.02.63,3.85-.42.84-1.53,1.41-3.32,1.73l-5.2.96c-1.8.32-3.1.27-3.9-.14-.8-.42-1.68-1.65-2.65-3.71l-4.24-9.24h-24.93l-3.47,11.17ZM633.07,88.29l-9.43-20.6-6.35,20.6h15.79Z"/>
      <path class="cls-13" d="M680.72,110.63c0,2.57-1.28,3.85-3.85,3.85h-6.26c-2.57,0-3.85-1.28-3.85-3.85v-56.8c0-2.57,1.28-3.85,3.85-3.85h6.26c.96,0,1.67.13,2.12.38.06,0,.1.03.1.1.06,0,.11.02.14.05.03.03.08.05.14.05,0,.06.03.1.1.1.06.06.13.11.19.14.06.03.13.11.19.24.13.13.22.23.29.29l.1.19,25.71,38.41,2.6-38.03c.13-1.28.48-2.25,1.06-2.89.58-.64,1.51-.96,2.79-.96h6.26c2.76,0,4.04,1.28,3.85,3.85l-3.85,56.8c-.06,1.29-.4,2.25-1.01,2.89-.61.64-1.56.96-2.84.96h-6.26c-1.35,0-2.38-.35-3.08-1.06-.06-.13-.13-.24-.19-.34-.07-.1-.16-.18-.29-.24l-24.26-36.2v35.91ZM701.13,36.69c-1.03,1.35-1.97,2.33-2.84,2.94-.87.61-1.85.91-2.94.91h-5.49c-1.29,0-2.04-.37-2.26-1.11-.23-.74-.11-1.65.34-2.74l4.62-10.2c.51-1.22,1.23-2.05,2.17-2.5.93-.45,1.97-.67,3.13-.67h9.72c1.28,0,1.99.37,2.12,1.11.13.74-.23,1.65-1.06,2.74l-7.51,9.53Z"/>
      <path class="cls-13" d="M761.1,95.71c0-1.6-.69-3.05-2.07-4.33-1.38-1.28-3.16-2.5-5.34-3.66-2.18-1.16-4.48-2.38-6.88-3.66s-4.7-2.78-6.88-4.48c-2.18-1.7-3.96-3.71-5.34-6.02-1.38-2.31-2.07-5.04-2.07-8.18,0-5.52,1.8-9.98,5.39-13.38,3.59-3.4,8.6-5.1,15.02-5.1,1.86,0,3.8.19,5.82.58s3.98.91,5.87,1.59c1.89.67,3.54,1.49,4.96,2.45,1.09.71,1.75,1.4,1.97,2.07.22.67.08,1.56-.43,2.65l-2.7,5.87c-.45.9-.98,1.46-1.59,1.69-.61.23-1.49.11-2.65-.34-1.8-.83-3.71-1.56-5.73-2.17-2.02-.61-3.87-.91-5.54-.91-1.8,0-3.32.31-4.57.91-1.25.61-1.88,1.65-1.88,3.13s.69,2.84,2.07,4.09c1.38,1.25,3.16,2.47,5.34,3.66,2.18,1.19,4.48,2.44,6.88,3.75,2.41,1.32,4.7,2.83,6.88,4.52,2.18,1.7,3.96,3.68,5.34,5.92,1.38,2.25,2.07,4.88,2.07,7.89,0,6.03-1.91,10.78-5.73,14.25-3.82,3.47-9.1,5.2-15.84,5.2-2.38,0-4.85-.26-7.41-.77-2.57-.51-5.05-1.25-7.46-2.21-2.41-.96-4.57-2.12-6.5-3.46-1.03-.77-1.68-1.46-1.97-2.07-.29-.61-.14-1.49.43-2.65l2.79-5.78c.51-.96,1.06-1.59,1.64-1.88.58-.29,1.44-.11,2.6.53,2.82,1.54,5.73,2.73,8.71,3.56s5.57,1.25,7.75,1.25c2.05,0,3.74-.3,5.05-.92,1.32-.61,1.97-1.81,1.97-3.61Z"/>
      <path class="cls-13" d="M828.4,113.42c-1.09.19-1.93.22-2.5.1-.58-.13-1.11-.52-1.59-1.16s-1.14-1.57-1.97-2.79l-16.17-24.16-7.51,7.41v15.88c0,2.57-1.28,3.85-3.85,3.85h-6.26c-2.57,0-3.85-1.28-3.85-3.85v-54.88c0-2.57,1.28-3.85,3.85-3.85h6.26c2.57,0,3.85,1.28,3.85,3.85v20.03l25.61-25.32c.83-.83,1.7-1.33,2.6-1.49.9-.16,1.86.21,2.89,1.11l4.24,3.85c.96.83,1.52,1.72,1.68,2.65.16.93-.21,1.85-1.11,2.74l-18.77,18.58c.13.26.32.56.58.92.26.35.51.75.77,1.2l18.68,28.79c1.03,1.54,1.28,2.76.77,3.66s-1.67,1.54-3.46,1.92l-4.72.96Z"/>
      <path class="cls-13" d="M859.97,110.63c0,2.57-1.28,3.85-3.85,3.85h-6.26c-2.57,0-3.85-1.28-3.85-3.85v-60.65c0-2.57,1.28-3.85,3.85-3.85h6.26c2.57,0,3.85,1.29,3.85,3.85v60.65Z"/>
      <path class="cls-13" d="M934.39,112.55h-39.09c-2.57,0-3.85-1.28-3.85-3.85v-6.74c0-1.16.26-2.05.77-2.7l.29-.38,25.7-36.39h-21.95c-2.57,0-3.85-1.28-3.85-3.85v-6.74c0-2.57,1.28-3.85,3.85-3.85h36.2c2.57,0,3.85,1.28,3.85,3.85v6.74c0,.77-.16,1.48-.48,2.12-.06.19-.16.4-.29.63-.13.22-.26.43-.38.62l-25.7,36.1h24.93c2.57,0,3.85,1.29,3.85,3.85v6.74c0,2.57-1.28,3.85-3.85,3.85Z"/>
      <path class="cls-13" d="M364.18,229.23c-2.38,0-5.12-.42-8.23-1.25-3.11-.83-6.31-2.18-9.58-4.04-1.09-.64-1.29-1.83-.58-3.56l2.89-7.12c.77-1.93,2.15-2.41,4.14-1.44,2.05,1.03,4.07,1.78,6.06,2.26,1.99.48,3.69.72,5.1.72,1.8,0,3.35-.42,4.67-1.25s2.34-2.26,3.08-4.28c.74-2.02,1.11-4.8,1.11-8.33v-24.74l-18.48.87c-2.5.07-3.75-1.19-3.75-3.75v-5.87c0-2.5,1.28-3.79,3.85-3.85l39.86-1.93c2.57-.06,3.85,1.22,3.85,3.85v5.87c0,2.38-1.25,3.63-3.75,3.75l-7.61.38v33.12c0,4.75-1,8.65-2.98,11.7-1.99,3.05-4.69,5.29-8.09,6.74-3.4,1.44-7.25,2.17-11.55,2.17Z"/>
      <path class="cls-13" d="M412.51,227.02c-.64,1.99-1.4,3.21-2.26,3.66-.87.45-2.13.51-3.8.19l-5.68-1.15c-1.8-.39-2.84-.98-3.13-1.78-.29-.8-.14-2.07.43-3.8l18.58-56.7c.58-1.67,1.19-2.73,1.83-3.18.64-.45,1.57-.67,2.79-.67h8.28c.83,0,1.41.08,1.73.24.32.16.59.51.82,1.06.22.55.59,1.4,1.11,2.55l26.38,54.97c.83,1.73,1.04,3.02.63,3.85-.42.84-1.53,1.41-3.32,1.73l-5.2.96c-1.8.32-3.1.27-3.9-.14-.8-.42-1.68-1.65-2.65-3.71l-4.24-9.24h-24.93l-3.47,11.17ZM435.42,203.82l-9.43-20.6-6.35,20.6h15.79Z"/>
      <path class="cls-13" d="M483.08,224.23c0,2.57-1.28,3.85-3.85,3.85h-6.26c-2.57,0-3.85-1.28-3.85-3.85v-58.72c0-2.57,1.28-3.85,3.85-3.85h6.26c.83,0,1.51.08,2.02.24.51.16.96.53,1.35,1.11l18.2,27.15,16.56-24.26c.45-.71.92-1.27,1.4-1.69.48-.42,1.23-.62,2.26-.62h6.26c2.57,0,3.85,1.28,3.85,3.85v58.73c0,2.57-1.29,3.85-3.85,3.85h-6.26c-2.57,0-3.85-1.28-3.85-3.85v-37.16l-11.84,17.42c-.45.64-.87,1.04-1.25,1.2-.38.16-.8.24-1.25.24h-4.91c-.45,0-.88-.1-1.3-.29-.42-.19-.82-.61-1.2-1.25l-12.32-18.48v36.39Z"/>
      <path class="cls-13" d="M558.55,226.15c0,2.57-1.28,3.85-3.85,3.85h-6.26c-2.57,0-3.85-1.28-3.85-3.85v-56.8c0-2.57,1.28-3.85,3.85-3.85h6.26c.96,0,1.67.13,2.12.38.06,0,.1.03.1.1.06,0,.11.02.14.05.03.03.08.05.14.05,0,.06.03.1.1.1.06.06.13.11.19.14.06.03.13.11.19.24.13.13.22.23.29.29l.1.19,25.71,38.41,2.6-38.03c.13-1.28.48-2.25,1.06-2.89.58-.64,1.51-.96,2.79-.96h6.26c2.76,0,4.04,1.28,3.85,3.85l-3.85,56.8c-.06,1.29-.4,2.25-1.01,2.89-.61.64-1.56.96-2.84.96h-6.26c-1.35,0-2.38-.35-3.08-1.06-.06-.13-.13-.24-.19-.34-.07-.1-.16-.18-.29-.24l-24.26-36.2v35.91Z"/>
      <path class="cls-13" d="M625.85,226.15c0,2.57-1.28,3.85-3.85,3.85h-6.26c-2.57,0-3.85-1.28-3.85-3.85v-60.65c0-2.57,1.28-3.85,3.85-3.85h6.26c2.57,0,3.85,1.29,3.85,3.85v60.65Z"/>
      <path class="cls-13" d="M668.21,214.79c2.37,0,4.91-.4,7.61-1.2,2.7-.8,4.85-1.56,6.45-2.26,1.09-.51,1.96-.64,2.6-.38.64.26,1.16.87,1.54,1.83l2.89,7.12c.71,1.67.51,2.86-.58,3.56-3.14,1.86-6.53,3.29-10.16,4.28-3.63.99-7.14,1.49-10.54,1.49-6.35,0-11.92-1.38-16.7-4.14s-8.49-6.64-11.12-11.65c-2.63-5.01-3.95-10.88-3.95-17.62s1.32-12.61,3.95-17.62c2.63-5.01,6.35-8.89,11.17-11.65s10.43-4.14,16.85-4.14c3.4,0,6.9.5,10.49,1.49,3.59,1,6.93,2.42,10.01,4.29,1.09.71,1.28,1.89.58,3.56l-2.89,7.12c-.38.96-.9,1.56-1.54,1.78-.64.23-1.51.11-2.6-.34-1.6-.71-3.75-1.46-6.45-2.26-2.7-.8-5.23-1.2-7.61-1.2-3.92,0-7.22.83-9.92,2.5-2.7,1.67-4.72,3.93-6.07,6.79-1.35,2.86-2.02,6.08-2.02,9.67s.67,6.92,2.02,9.77c1.35,2.86,3.37,5.1,6.07,6.74,2.7,1.64,6,2.45,9.92,2.45Z"/>
      <path class="cls-13" d="M739.25,228.08h-39.09c-2.57,0-3.85-1.28-3.85-3.85v-6.74c0-1.16.26-2.05.77-2.7l.29-.38,25.7-36.39h-21.95c-2.57,0-3.85-1.28-3.85-3.85v-6.74c0-2.57,1.28-3.85,3.85-3.85h36.2c2.57,0,3.85,1.28,3.85,3.85v6.74c0,.77-.16,1.48-.48,2.12-.06.19-.16.4-.29.63-.13.22-.26.43-.38.62l-25.7,36.1h24.93c2.57,0,3.85,1.29,3.85,3.85v6.74c0,2.57-1.28,3.85-3.85,3.85Z"/>
      <path class="cls-13" d="M783.06,230.2c-6.55,0-12.27-1.41-17.18-4.24-4.91-2.82-8.73-6.82-11.46-11.98-2.73-5.17-4.09-11.22-4.09-18.15s1.36-12.96,4.09-18.1c2.73-5.13,6.56-9.13,11.5-11.99,4.94-2.86,10.72-4.28,17.33-4.28s12.26,1.43,17.14,4.28c4.88,2.86,8.68,6.85,11.41,11.99,2.73,5.14,4.12,11.17,4.19,18.1-.06,6.93-1.46,12.98-4.19,18.15-2.73,5.17-6.55,9.16-11.46,11.98-4.91,2.82-10.67,4.24-17.28,4.24ZM783.25,215.75c4.11,0,7.54-.87,10.3-2.6,2.76-1.73,4.84-4.09,6.26-7.08,1.41-2.98,2.15-6.4,2.21-10.25-.07-3.79-.82-7.19-2.26-10.2-1.44-3.02-3.55-5.39-6.31-7.12-2.76-1.73-6.19-2.6-10.3-2.6s-7.57.87-10.4,2.6c-2.83,1.73-4.94,4.11-6.35,7.12-1.41,3.02-2.12,6.42-2.12,10.2s.71,7.27,2.12,10.25c1.41,2.98,3.53,5.34,6.35,7.08,2.82,1.73,6.32,2.6,10.49,2.6Z"/>
      <path class="cls-13" d="M868.06,230.87c-1.09.26-1.94.34-2.55.24-.61-.1-1.16-.47-1.64-1.11-.48-.64-1.11-1.64-1.88-2.98l-10.11-17.42c-1.03.13-2.07.23-3.13.29-1.06.06-2.17.1-3.32.1h-5.1v14.25c0,2.57-1.28,3.85-3.85,3.85h-6.26c-2.57,0-3.85-1.28-3.85-3.85v-56.8c0-2.57,1.28-3.85,3.85-3.85h15.21c9.11,0,16.14,1.91,21.08,5.73,4.94,3.82,7.41,9.64,7.41,17.47,0,8.6-3.08,14.86-9.24,18.77l10.3,18.77c1.6,3.02.71,4.88-2.7,5.58l-4.24.96ZM845.82,178.02h-5.49v17.52h5.49c4.94,0,8.54-.77,10.78-2.31,2.25-1.54,3.37-3.69,3.37-6.45s-1.12-4.91-3.37-6.45c-2.25-1.54-5.84-2.31-10.78-2.31Z"/>
      <path class="cls-13" d="M888.38,228.08c-2.63,0-3.92-1.28-3.85-3.85l1.93-56.8c.06-2.57,1.35-3.85,3.85-3.85h33.21c2.57,0,3.85,1.28,3.85,3.85v5.87c0,2.5-1.25,3.75-3.75,3.75h-23.97l-.48,12.32,20.5-1.35c2.57-.19,3.85,1.09,3.85,3.85v5.87c0,2.31-1.25,3.56-3.75,3.75l-20.99,1.44-.48,11.65h25.22c2.57,0,3.85,1.29,3.85,3.85v5.87c0,2.5-1.25,3.75-3.75,3.75h-35.24Z"/>
      <path class="cls-13" d="M952.01,224.23c0,2.57-1.28,3.85-3.85,3.85h-6.26c-2.57,0-3.85-1.28-3.85-3.85v-58.72c0-2.57,1.28-3.85,3.85-3.85h6.26c.83,0,1.51.08,2.02.24.51.16.96.53,1.35,1.11l18.2,27.15,16.56-24.26c.45-.71.92-1.27,1.4-1.69.48-.42,1.23-.62,2.26-.62h6.26c2.57,0,3.85,1.28,3.85,3.85v58.73c0,2.57-1.29,3.85-3.85,3.85h-6.26c-2.57,0-3.85-1.28-3.85-3.85v-37.16l-11.84,17.42c-.45.64-.87,1.04-1.25,1.2-.38.16-.8.24-1.25.24h-4.91c-.45,0-.88-.1-1.3-.29-.42-.19-.82-.61-1.2-1.25l-12.32-18.48v36.39Z"/>
    </g>
    <g>
      <g>
        <g>
          <g>
            <path class="cls-13" d="M308.34,64.01c.24,33.71.31,67.54,0,101.25l-.5,1.45h-92.63l-.89-1.45c-1.81-2.23-3.12-5.01-3.92-8.36-4.97-10.24-10.21-20.29-15.84-30.2-.49-.85-2.08-1.15-1.77-2.16-.42-.03.45-.59.1-.76-1.53-.73-3.37-16.33-2.71-18.39,1.05-3.25,4.06,1.22,3.89,3.44,4.85,20.8,34.73,34.02,38.95,5.84h0c.18-4.61.65-10.65.95-15.19h0c3.15-9.3,4.55-18.49,4.18-27.54-1.24-2.82-1.94-5.46-2.11-7.91l.5-1.45h70.95l.88,1.45Z"/>
            <path class="cls-13" d="M54.49,64.01c.47.62.55,1.23.28,1.9-3.22,7.95-3.47,10.5-1.56,18.85,3.73,9.12,4.22,18.1,4.28,27.79,4.04,32.05,31.82,18.29,39.3-5.97.86-2.79,2.16-6.27,3.96-1.4,1.64,4.45-2.55,19.89-6.21,23.27-3.59,8.07-7.59,15.89-12.02,23.48l-5.12,12.64-1.21.7-.88,1.45H1.12l-.88-1.45C-.08,131.55-.02,97.72.24,64.01l.67-1.45h52.71l.86,1.45Z"/>
          </g>
          <g>
            <path class="cls-13" d="M308.34,64.01h-72.32c-2.01-1.01-3.82-2.77-5.43-5.28-11.45-9.35-17.49-20.26-23.98-32.77-7.43-2.95-13.54-7.38-18.32-13.3-1.36-1.05-3.74-3.54-5.06-4.34l96.58-.03c32.16,4.73,28.36,30.88,28.54,55.72Z"/>
            <path class="cls-13" d="M107.28,8.32c-2.62,1.68-3.43,3.39-5.06,5.06-5.69,6.17-11.27,9.47-18.55,13.11-6.04,12.4-12.24,22.84-23.4,32-1.73,2.65-3.66,4.49-5.79,5.52H.24C.43,38.82-3.36,13.57,28.78,8.29l78.5.03Z"/>
          </g>
        </g>
        <g>
          <path class="cls-13" d="M308.34,165.26c-.08,9.15,1.32,22.26-1.61,30.57-4.49,12.77-16.83,20.4-30.21,20.05v32.55l-2.17-1.08-33.28-31.09-33.26-.37-.48-1.39c6.08-15.61,11.84-31.1,6.37-47.87l.63-1.36h94.02Z"/>
          <path class="cls-13" d="M76.18,165.26l.63,1.4c-4.56,16.66.63,32.25,6.36,47.81l.64,1.42H28.1c-12.41-1.32-22.65-9.38-26.43-21.31-2.63-8.3-1.34-20.33-1.42-29.31h75.94Z"/>
        </g>
      </g>
      <g>
        <path class="cls-4" d="M56.3,110.11c0-2-1.39-13.59,0-14,.06-1.75.54-.37,0-2-2.26-1.57-3.38-7.64-4.09-10.79-2.48-10.86-.66-16.53,6.33-24.94,11-9.66,18.31-19.59,24.1-32.8,7.23-3.8,12.97-6.85,18.69-13.24q2.65-2.91,5.06-5.06C112.86,3.14,122.92,0,130.62,0c3.87,0,7.81,1.36,11.54,1.52,7.92.33,14-1.94,22.35-.65,5.13.79,13.39,3.74,17.82,6.41q2.73,2.05,5.06,4.34c4.31,5.58,10.46,10.06,18.46,13.44,6.32,13.21,13.29,23.7,24.64,33.53,6.36,7.75,8.32,13.19,6.59,23.28-.77,4.51-2.67,12.4-4.05,16.73-.08.24-.4.4-.8.53,0,4.43-.01,8.95-.05,13.56-1.87,21.8-22.39,21.58-33.74,5.83-12.07-16.74-6.73-32.51,1.43-49.74,5.57-12.98,5.71-30.69-4.64-41.07l2.24,11.74c.46,7.95-1.07,9.79-9.07,8.8-.63,10.42-5.45,18.54-11.94,26.38-.66,1.79-1.6,3.21-2.82,4.27,2.06,2.26.65,11.56-3.05,8.33-1.43-6.55-4.46-12.33-7.64-18.14.41,2.28,1.57,9.03.15,10.75l-1.75.51-1.69.28c-8.39-4.73-20.92-4.43-29.67-.7l-1.91-.3-1.74-.25c-1.65-1.86-.5-8.36.01-10.74-3.61,6.08-6.46,12.47-8.55,19.17-5.11,3.13-3.45-5.63-2.29-7.59l-.46-1.32-1.62-.4-1.57-5.47c-7.78-9.29-10.61-18.09-12.47-29.8-4.84,2.72-9.63,2.01-8.02-4.63l2.49-11.16c-14.45,15.85-8.51,38.81,1.08,55.85,1.69,4.39,2.76,9.12,2.58,13.85-.55,14.01-11.18,32.68-27.09,32.72-9.95.03-14.45-10.89-13.23-19.15l-.91-.6Z"/>
        <path class="cls-14" d="M167.87,222.08l1.39,1.55.27,9.12,5.83-8.5c7.92-10.7,10.83-1.56,2.3,4.95-1.27,2.66-2.84,4.14-4.73,4.45v3.12c-2.15,5.3-2.87,11.01-2.17,17.13.62.24.62.48,0,.72.21,5,3.46,23.13,10.81,16.16l1.48-.25c-4.36-12.51,5.53-8.33,6.39,2.25,1.69,1.87,7.18-6.1,3.78-8.52.61-9.16,6.78,1.86,8.77,5.51l.17-4.58c-1.01-2.44-.68-4.05,1-4.84l-8.2-8.13.39-1.94c-4.09-.84-5.19-10.75-1.45-13.02l-1.06-1.27c0-.69,5.06-10.03,6.84-8.85.72.81.47,2.26-.72,4.34-1.64,5.15-4.64,8.5-3.12,14.34,2.36,9.03,17.99,13.96,14.02,24.41-.2.52-2.73,4.82-2.96,4.99-1.27.96-4.4.71-5.96,1.14-1.8.5-.26.75-4.39.94s-10.67.74-14.57.48c-7.5-.5-12.49-7.18-13.32-14.21-.31-2.62.21-5.35-.07-7.88-.33-3.01-2.18-5.72-1.46-9.03-14.95,6.21-29.94,6.7-44.83,0-3.03,10.47.64,29.15-14.3,30.92-2.86.34-4.34-.61-6.31-.54-6.98.24-7.94,1.38-14.95-.96-1.32-.44-3.12-.27-4.21-.85-.65-.35-3.27-5.07-3.47-5.92-.61-2.6.04-3.28.57-5.28-.17,1.57-.09,1.61,1.45,1.45,2.85-4.62,5.07-5.66,6.66-3.13-2.56,9.98-.74,9.56,5.46-1.24,4.26-2.21,4.3,2.4,1.79,4.91,2.73,8.97,4.34,9.22,7.4-.95,4.05-5.6,6,2.2,3.27,5.48l1.66.47c5.87,5.8,9.91-6.57,10.64-11.32-1.92-1.15-1.91-2.47,0-3.62,1.21-6.58.63-12.78-1.74-18.6l.29-1.65c-.34.07-.67.1-.99.04-.71-.14-6.87-11.66-6.6-12.54,1.2-3.9,6.25,1.58,6.96,3.55,4.38,9.41,5.62,8.58,3.71-2.48l1.25-1.59,1.45.72,1.56.83c.79,5.52.62,11.13-.51,16.83,13.46,6.37,28.76,5.26,42.63.38-.89-2.66-2.7-12.54-1.81-14.71.32-.79.81-1.42,1.53-1.87.56-1.36,1.29-2.32,2.17-2.89Z"/>
        <path class="cls-3" d="M193.18,123c6.69,13.5,16.08,26.31,20.25,41.22,5.7,20.4.95,31.86-6.51,50.63-2.25,5.66-4.6,11.53-7.96,16.63.39-1.21.31-3.19.72-4.34-.19-.55-.35-1.11-.42-1.68-.41-3.53,6.35-17.39,9.1-20.74l-.8-2.17c8.68-18.32,4.81-37.29-4.32-54.35-1.52,10.35-5.8,19.92-11.37,28.7-8.12,10.99-14.56,22.64-19.34,34.96l-1.79.83c1.29,2.66.09,8.35-2.89,9.4-.67,1.69-.52,3.41-2.17,2.89-2.23-1.34-1.06-8.09,1.45-8.68l-.81-2.56c4.92-13.18,11.64-25.56,20.17-37.14,5.55-8.87,10.13-18.5,11.49-28.99l1.7-2.19c-.65-2.38-1.21-4.96-1.67-7.76-1.9-3.61-3.51-7.29-4.84-11.04-2.05.63-2.72-5.38,0-3.62Z"/>
        <path class="cls-18" d="M191.01,135.29c-1.12,1.02-1.95.75-2.64-.43-2.74,1.25-4.91,3.46-6.82,5.78-14.23,23.63-43.12,29.22-64.35,10.67l-14.45-15.61c-1.55.84-2.75.94-3.6.31-.12-.54-.59-.96-.72-2.17-.93-8.17,1.41-15.94,2.9-23.87,1.44,3.02,3.95,1.58,5.49,2.82.91.73.99,2.67,2.06,3.73,2.53,2.52,7.07,4.36,9.8,5.75l1.14,1.12c.17,35.29,50.44,34.87,49.74-.74l1.2-1.1c4.75-2.86,8.83-6.2,10-12.11.37-1.88-.75-3.68-.6-3.79.19-.14,1.92.13,2.9-.36,1.27-.64,4.49-7.39,5.1-1.49.38,3.67.2,7.73.75,11.54.99,6.9,3.21,12.26,2.1,19.96Z"/>
        <path class="cls-16" d="M119.41,214.85c1.24,6.34-8.5,4.98-5.06.72-3.44-11.64-12.5-19.7-24.11-22.89-15.43-4.23,1.51,16.68,7.3,18.28l.18,1.71c.75,1.06.28,1.98-1.4,2.75,3.11,7.75-3.95,7.43-7.41,1.73-2.87-1.01-4.47-2.27-5.65-5.2-7.57-20.77-11.58-31.77-3.63-53.89,1.63-4.54,3.76-9.97,7.24-13.37,1.49,27.02,25.79,45.25,32.55,70.15Z"/>
        <path class="cls-32" d="M117.96,256.07c.06,1.19.04,2.43,0,3.62-.3,5.94-5.98,15.14-12.3,10.85-1.02-2.69.19-4.07-.36-6.51-2.55.89-4.17,9.62-4.8,10.02-.42.26-4.05.22-4.2.06s.06-1.9-.43-2.8c-1.15-2.14-3.24-2.39-2.21-5.86.12-.39,3.52-4.7.8-3.58-.58.24-5.12,7.52-5.77,8.72-1.09,2.04.96,3.44-3.28,2.84,1.61-4.73-1.88-7.58,1.44-11.56-2.65.11-3.01,3.32-5.79,3.61,1.16-6.98,9.91-9.64,13.02-15.91l1.06-1.48c6.83,2.23,13.1,1.66,18.81-1.73,4.34-.28,5.67,2.96,4,9.72Z"/>
        <path class="cls-25" d="M98.91,237.85c6.48,3.95,13.46,6.75,17.39-1.63.1.22,1.3.78,1.81,2.15,2.42,6.42,1.52,11.66-.36,18.1.28-.96-.06-2.62-.15-3.6-.12-1.32-.3-2.86-1.07-3.98-.96-1.38-2.28-.87-3.49-.18-1.49.84-2.97,1.56-4.62,2-1.9.51-3.89.7-5.85.56s-3.79-.91-5.75-1.19c-.34-.05-2.77-.41-2.92-.11,2.54-5.13.87-8.79.72-13.74,1.74-1.14,4.91-.37,4.31,1.63Z"/>
        <g>
          <path class="cls-33" d="M105.59,8c.44.08-10.03,11.33-12.99,13.34-2.39,1.62-5.04,1.77-7.13,2.99-4.09,2.39-6.98,12.37-9.88,16.88-8.13,12.64-24.3,19.51-23.47,36.61.26,5.36,2.5,10.59,4.37,15.52.62,1.57.86,3.26.72,5.06,0,.48,0,.96,0,1.45.09,4.25.09,6.25,0,10.85,1.03,13.78,8.16,22.87,22.57,15.7,12.54-6.24,18.27-23.07,15.71-36.26-2.06-10.58-10.47-21.14-11.51-31.88-.81-8.36,1.01-23.64,6.85-30.02,1.07-1.17,5.3-5.1,4.67-1.12-.52,3.25-3.43,12.49-2.91,15.14.44,2.19,5.72.38,6.98-.94,1.76-1.84,1.29-1.68,3.56-3.63,3.72-3.2,5.23-6.12,11.05-6.34,6.85-.25,7.86,5.55,9.94,6.31.57.21.52-2.52,2.15-2.16,2.09,2.25,5.38,5.76,7.44,1.63l2.33-6.7c.36,5-4.89,21.31-9.55,22.69-6.37,1.89-.52-6.26-1.3-8.95-2.87.72-3.89,4.83-6.69,5.96-6.81,2.75-14.25-1.71-15.01-8.86l-2.89.73c2.09,4.75,1.61,10.15,3.26,15.18,2.1,6.39,7.01,10.46,9.58,15.73.66,1.35,1.43,5.73,1.62,5.97,1.1,5.27-8.21,4.32-10.68.81-3.45-5.63-5.42-11.99-5.92-19.08-1.42,3.55-1.13,7.38.88,11.5l3.55,8.11-.85,1.55c.95,8.69,2.05,15.82,7.23,23.14l1.64,1.19c.92,7.08,5.46,12.04,11.8,14.97l.3,1.92,2.61-.06c11.89,8.35,24.79,7.96,36.74-.06l2.6.12c.2-.64.44-.63.72,0,.54.21.54.45,0,.72-.39,2.92-7.08,7.09-10.05,8.1-13.95,4.78-25.05.13-36.4-7.62l-.57-1.93c-2.47,1.74-8.73-2.68-10.87-4.78.31-1.81-4.3-5.68-5.44-4.44-1.7,1.85-2.76,15.56-2.66,18.91l-1.29,1.89c-.09,2.1-1.57,1.95-2.17,0-1.34-.46-1.88-1.86-1.62-4.22l-3.96,8.83-1.66.46c-.58,2.49-.58,4.9,0,7.23l1.61,2.01c1.06,10.13,5.73,19.33,11.01,27.9,8.35,11.58,15.01,23.91,20,36.98l-.8,2.54c2.39,1.23,3.83,6.57,1.45,7.96-.3,1.22-.79.98-1.45-.72-2.83-1.28-2.25-5.48-1.45-7.96l-1.98-1.63c-5.26-12.86-12.07-25.04-20.41-36.53-5.45-8.65-9.7-18.04-11.42-28.17-11.49,19.41-10.92,40.6-1.75,60.86l1.45,2.73c2.89,4.26,5.39,8.81,7,14,2.06,3.18,1.37,6.43,2.52,9.71,2.58,3.18.98,11.54-.94,14.14l-.99,1.63c-4,5-10.59,9.51-11.81,13.88-.88,2.91-2.3,1.28-1.45-1.45,2.62-9.87,16.8-12.24,13.4-25.34-1.47-5.68-8.54-17.02-11.23-23.84-6.92-17.6-11.78-31.53-6.51-50.63s21.6-36.2,23.05-54.7c.16-2.02.11-4.03.09-6.05-2.11-.36-1.18.49-1.53,1.68-3.59,11.95-11.95,25.79-26.31,25.65-17.74-.17-13.92-23-15.63-34.11-1.88-12.26-9.28-20.7-1.36-33.72,4.85-7.97,15.54-14.73,21.27-23.93,2.32-3.73,4.55-11.65,6.93-14.04,2.45-2.46,6.77-3.03,9.65-4.81,3.27-2.03,10.41-10.73,14.14-12.18Z"/>
          <g>
            <path class="cls-27" d="M109.28,104.92c-6.93-4.92-8.73-15.26-7.23-23.14,5.5,11.27,5.58,10.28,7.23,23.14Z"/>
            <path class="cls-31" d="M107.83,36.93c-2.58,17.06,19.73,10.14,9.41-2.16,9.69,3.77,3.18,16.51-5.8,14.12-4.75-1.26-8.52-8.97-3.61-11.96Z"/>
            <path class="cls-21" d="M91.2,70.92c-6.45-7.64-6.75-18.94-4.32-28.2l4.32,28.2Z"/>
            <path class="cls-19" d="M113.62,39.1c-1.54,1.22-5.41-2.87-2.52-3.61,2.34-.6,3.8,2.6,2.52,3.61Z"/>
            <path class="cls-18" d="M89.03,142.52c0,1.2-.06,2.42,0,3.62-1.77-2.02-.51-5.04,0-7.23,0,1.21,0,2.41,0,3.62Z"/>
          </g>
        </g>
        <path class="cls-5" d="M208.37,204.72c-2.64,7.99-5.96,14.78-8.68,22.42-1.44,2.9-4.83,7.32-5.79,10.13-5.34,7.46-22.12,8.65-20.97-3.62.92-1.63,2.22-3.45,3.32-5,1.02-1.44,6.75-6.47,5.36-8.01-1.27-.26-1.79.65-2.54,1.43-7.54,7.79-12.13,24.18-11.2.01,1.24-3.14,1.76-6.1,2.89-9.4,1.43-.34,2.75-.32,2.89,1.45,6.72.75,13.75-1.47,19.85-4.18l1.85.56c3.5.05,6.51-1.73,9.04-5.35,1.82-1.87,3.15-2.01,3.98-.44Z"/>
        <path class="cls-29" d="M195.35,250.29c2.34,3.93,12.62,10.8,12.3,14.82-.05.64-1.31.48-1.44.37-.43-.36-1.32-4.23-3.63-3.61,2.34,4.09-.21,7.31,1.44,11.56-4.11.55-2.26-.6-3.3-2.82-.57-1.22-5.12-8.69-5.74-8.74-2.07-.16,1.18,4.66.97,5.97-.05.35-3.31,6.01-3.62,6.19-.47.29-4.04.23-4.2.08-.4-.38-1.31-8.74-4.02-10.08-2.2-.26-.22,3.29-.28,4.74-.04,1.14-.64,1.35-.8,1.77-.45.73-1.03,1.09-1.84,1.3-7.22,1.84-10.73-12.13-10.45-17.21.03-.24-.05-.49,0-.72-.49-7.92,4.19-9.39,14.06-4.42,4.27-1.4,7.78-1.13,10.53.81Z"/>
        <path class="cls-25" d="M193.9,237.27c-1.41,4.16-.8,9.25,1.45,13.02-1.66,1.46-4.12,1.01-6.18.95-2.13-.06-4.26-.3-6.33-.83s-4.11-1.36-6.07-2.24c-.2-.09-.41-.19-.61-.28-.33-.15-.66-.31-1.02-.34-.73-.07-1.2.58-1.61,1.1-.46.58-.85,1.22-1.22,1.86-.59,1.04-1.28,2.2-1.55,3.37,0,.01,0,.02,0,.03-3.02-7.19-1.47-13.8,2.17-20.25,1.44,5.5,5.73,9.17,11.61,7.62l9.37-4.01Z"/>
        <path class="cls-15" d="M183.05,270.54c-1.9,5.08-5.82,4.27-9,.68-2.89-3.26-3.88-12.37-3.3-16.59,2.68,7.55,1.98,15.53,12.3,15.91Z"/>
        <path class="cls-8" d="M105.67,270.54c7.58.39,9.43-5.26,12.3-10.85-.1,2.82.23,4.76-.68,7.64-1.62,5.1-8.83,10.58-11.61,3.21Z"/>
        <path class="cls-1" d="M208.37,204.72c-4.22.04-8.26,10.79-13.02,5.79l-.2-1.71c2.15-1.02,13.28-15.53,9.89-16.34-10.9-2.61-26.29,10.99-29.62,20.98l-1.77.68c-.32-.21-2.49.36-2.89-1.45.72-2.1,1.17-4.18,2.04-6.27,8.66-20.84,27.76-37.13,29.06-60.98,1.29-.28,1.43.38,2.05,1.2,4.82,6.34,10.05,25.24,10.26,33.18.22,8.66-3.17,16.96-5.8,24.92Z"/>
        <path class="cls-20" d="M200.29,142.11c0-.22,0-.43-.02-.64-.02-.72-.1-1.43-.22-2.14-.18-1.04-.46-2.07-.82-3.06s-.8-1.96-1.3-2.89-1.07-1.86-1.67-2.74-1.26-1.76-1.93-2.6c-.19-.24-.39-.48-.58-.72-.1-.12-.19-.23-.29-.35-.05-.06-.1-.12-.15-.17-.03-.03-.14-.13-.15-.17.13,3.24-.59,9.19-1.45,12.29-5.28,19.06-22.8,32.94-41.95,35.44-3.17.57-6.3.57-9.4,0-19.92-1.12-37.23-16.45-42.67-35.44-.41-1.42-1.27-3.83-1.45-5.06-.17-1.19.81-9.13-1.43-7.23-.91.77-1.46,2.3-1.98,3.33-.9,1.79-1.73,3.61-2.51,5.46-.53,1.26-1.16,2.52-1.37,3.88-.72,4.6.02,9.27.98,13.77.52,2.44,1.23,4.83,2.08,7.17,1.73,4.74,4.06,9.24,6.6,13.59,2.61,4.48,5.46,8.81,8.25,13.17,2.81,4.39,5.57,8.83,7.99,13.46,2.4,4.61,4.45,9.41,5.8,14.44.06.23.12.46.18.68.82,3.2,1.07,4.66,1.45,7.96.34,2.98.9,5.09.75,8.35-.12,2.55-1.98,8.73-.83,10.14.87,1.07,6.1,2.71,7.73,3.15,12.44,3.34,25.3,2.26,37.08-2.95-.74-5.96-1.76-11.12-1.34-17.25.16-2.27.89-6.42,1.45-8.68.22-.9.47-1.8.74-2.69s.55-1.78.86-2.65.63-1.74.96-2.6.69-1.71,1.06-2.56.75-1.69,1.15-2.52.81-1.66,1.23-2.48.86-1.64,1.3-2.45.9-1.62,1.36-2.43.93-1.61,1.41-2.41.96-1.6,1.44-2.39.98-1.59,1.47-2.38.99-1.58,1.49-2.37,1-1.58,1.5-2.37,1-1.58,1.5-2.38,1-1.59,1.49-2.38.98-1.6,1.47-2.4.97-1.61,1.44-2.41.94-1.62,1.4-2.44.91-1.64,1.35-2.47.87-1.66,1.29-2.5.83-1.68,1.22-2.54.78-1.71,1.14-2.58.72-1.74,1.05-2.62.65-1.78.95-2.68.58-1.82.84-2.73.51-1.86.73-2.79.42-1.9.6-2.86.33-1.95.46-2.93c.08-.64.18-1.27.22-1.91.02-.42.03-.84.02-1.26Z"/>
        <path class="cls-28" d="M191.01,135.29c-1.09,7.61-9.46,20.45-15.18,25.68-26.95,24.7-68.71,9.56-76.67-24.96,1.52-.87,2.83-2.75,4.57-1.37l14.45,15.61c16.14,13.79,38.02,14.87,53.77-.03,4.82-4.56,9.36-13.89,15.68-16.57,1.73-.73,1.82.92,3.38,1.64Z"/>
        <g>
          <path class="cls-3" d="M232.23,99.13c.94-.95,1.85-2.24,1.33.72-.12,5.03.05,8.74-.6,13.02-1.28,20.35-20.62,22.86-32.91,9.41-4.34-4.75-6.24-9.73-8.23-15.67-.38-1.12.64-2.07-1.52-1.69.34,5.98.16,12.57,2.89,18.08-1.8.8.06,3.45.45,4.65.87,2.71,1.19,5.63.7,8.45-.38,2.23-1.25,4.34-2.15,6.42-2.49,5.77-5.46,11.28-9.66,16-4.46,5-9.89,9.12-15.88,12.12-3.55,1.78-7.22,2.98-11.01,4.09s-7.96,1.67-12.01,1.53c-6.52-.23-13.43-1.78-19.37-4.47-6.06-2.75-11.52-6.75-16.05-11.62-2.56-2.75-4.83-5.77-6.75-9.01-3.02-5.09-5.24-10.51-6.6-16.27-.36-1.52-.66-3.07-.79-4.63-.06-.79-.09-1.59-.05-2.38s.29-1.53.29-2.28c.15-.44.45-.75.94-.75.95,0,2.72-.63,3.32.48.12.23.15.5.19.76.35,2.34,3.01,13.84,3.88,16.05.76,1.95,1.67,3.85,2.67,5.69,1.87,3.43,4.14,6.65,6.78,9.52,4.86,5.28,10.99,9.34,17.77,11.7,13.24,4.62,28.27,2.57,39.9-5.21,4.61-3.08,8.63-7.01,11.87-11.51,1.71-2.38,3.2-4.91,4.47-7.55.68-1.42,1.3-2.88,1.85-4.36.24-.63.97-4.21,1.45-4.42,0,0,.31-1.71.31-1.71l.07-1.33c-1.19-9.8-2.24-19.65-3.15-29.54-1.18,1.92-2.68,3.11-4.51,3.58.53,3.89-1.33,7.49-3.78,10.4-1.57,1.87-5.36,5.66-7.61,4.16.23,2.38-3.37,3.68-5.06,2.17v-.72l.35-1.91c7.18-3.08,9.58-8.16,11.99-14.99.23-.65.69-1.03,1.41-1.18l1.2-3.35c5.3-5.99,5.71-13.02,6.03-20.52l-.91-1.41c4.08-5.66,5.72-11.41,4.93-17.25l-3.28,12.2c-1.61,6.38-11.29,12.25-13.76,4.29-.51-4.26,5.54-9.62,7.83-13.51,1.5-2.56,3.49-6.66,4.26-9.49.63-2.32.57-6.56,1.3-8.1,1.46-3.12,6.2.89,7.97-1.44,3.16-4.15-1.09-15.77-1.83-20.61,4.51-.65,8.55,8.1,9.77,11.93,9.44,29.45-14.93,42.49-9.56,67.42,2.6,12.09,16.1,28.94,29.85,22.29,8.8-4.26,8.35-14.58,8.32-22.85-.01-3.95.26-3.03.69-5.4Z"/>
          <path class="cls-27" d="M179.44,104.92c.38-3.06-.36-6.17.32-9.44.8-3.89,5.04-10.61,6.91-14.42,3.27,7.73-1.21,18.46-7.23,23.87Z"/>
          <path class="cls-30" d="M197.52,70.92c.39-5.42,2.97-11.14,3.52-16.36.37-3.5-.05-7.22.09-10.77.04-.88-.55-2.69.72-2.52,2.33,9.83,2.54,21.49-4.33,29.65Z"/>
        </g>
        <g>
          <path class="cls-24" d="M161.36,80.33c3.22.1,4.4,8.03,4.31,11.06-.1,3.44-1.31,11.88-5.04,12.08-1.79,5.55-6.4,8.69-13.83,9.4-1.42,1.78,11.48,3.4,13.02,3.56l.81,1.5,1.16-1.46c8.66-.36,13.27-6.16,13.83-17.39,3.47-3.56,3.04,2.58,2.67,5.44-.57,4.39-2.48,8.42-5.46,11.68-1.79,1.95-6.63,6.54-8.58,3.9l-1.71,1.67c-11.78-.08-23.56-.23-35.34-.45l-2.01-1.23c-5.54,2.07-11.69-5.27-13.37-10.34-.96-2.89-2.75-17.53,2.39-11.79-.15,6.78.83,15.03,8.15,17.55l.66,1.69c1.69.44,2.43.22,3.79-.87,5.14.23,12.17.14,15.83-3.51-5.64-.81-13.94-2.76-14.56-9.36-3.91-.33-4.82-9.4-4.81-13.02,0-3.36.71-11.37,4.81-10.85,4.92-5.19,28.91-5.26,33.27.72Z"/>
          <path class="cls-26" d="M161.98,87.46c-.2.35-3.08,1.48-3.85,1.58-5.42.67-13.82,0-19.61-.04-3.95-.03-7.9.98-11.92-1.17.52-12.22,20.71-12.02,28.78-9.12,2.4.86,7.74,6.76,6.61,8.75Z"/>
          <path class="cls-11" d="M128.09,103.47c.13.21,2.99,3.38,3.26,3.62,3.51,3.07,8.11,3.97,12.66,4.35.29,2.61-.12,2.9-2.17,3.98-5.12,2.7-13.42,3.08-18.81,1.8,1.5-.14,2.29.83,3-.99,1.58-4.04,1.08-8.6,2.06-12.75Z"/>
          <path class="cls-10" d="M160.63,117.93c-2.23,0-14.89-2.09-15.23-3.34-.12-.42-.03-3.01.08-3.14.29-.32,6.35-1.11,8.41-2.08,2.38-1.12,5.31-3.72,6.74-5.92v14.46Z"/>
        </g>
        <g>
          <path class="cls-7" d="M235.13,62.97c8.85,14.76-.43,22.47-1.45,36.16l-.72.72-.72-.72c1.12-6.15,3.8-14.5,4.33-19.9,1.79-18.26-14.22-24.32-23-37.74-2.6-3.98-6.15-13.79-8.51-16.08s-6.57-2.62-9.64-4.82c-2.25-1.61-4.87-4.75-6.93-6.81-.34-.33-5.54-4.79-5.19-5.79,3,2.32,10.14,9.25,12.83,11.17s6.41,2.59,8.89,4.13c4.28,2.64,6.5,11.67,9.57,16.46,5.57,8.71,15.65,15.04,20.55,23.21Z"/>
          <path class="cls-12" d="M121.39,20.45c7.78-1.52,9.7,7.43,4.82,12.09-1.71.41-8.55-7.15-8.89-8.4-.53-1.92,2.45-3.38,4.07-3.7Z"/>
          <path class="cls-12" d="M164.04,21.17c2.33-.52,7.48.2,7.46,3.1,0,1.17-7.23,8.34-8.34,8.34-3.49.03-5.38-10.04.88-11.44Z"/>
          <path class="cls-3" d="M185.95,36.93c.99.69,3.89.19,3.6,3.28-.33,3.53-2.2.65-3.6.33.06-1.2-.04-2.41,0-3.62Z"/>
          <g>
            <path class="cls-3" d="M185.95,40.55c-.33,7.01-5.28,11.82-12.48,10.68-5.12-.81-6.23-4.39-9.21-7.78-1.36,2.06,2.41,6.93,2.16,7.22-1.9,2.19-7.71-2.55-8.83-4.54-1.87-3.33-4.77-13.63-4.94-17.49-.03-.59-.22-2.64.75-1.46-.48,2,2.78,12.51,4.04,12.7,2.93.46,4.32-4.81,5.81-5.08.88-.16,1.78,1.49,2.72,1.35.65-.1,3.51-3.7,7.39-4.21,7.36-.98,7.69,1.57,12.6,5,2.01.96,2.06,2.69,0,3.62Z"/>
            <path class="cls-22" d="M170.76,35.49c-6.43,6.27,2.9,16.41,9.36,10.44,5.87-5.42-1.88-10.74-1.41-11.16,15.79,6.06-4.55,22.48-10.75,10.39-1.57-3.06-1.07-8.66,2.8-9.66Z"/>
            <path class="cls-23" d="M175.09,39.1c-4.77,1.2-4.38-4.61-1.09-3.6,1.2.37,1.22,2.54,1.09,3.6Z"/>
          </g>
        </g>
        <path class="cls-5" d="M86.56,213.93c.49,1.48,1.21,4.63,1.76,6.08,1.11,2.9,2.36,5.75,3.85,8.48,1.44,2.65-.28,5.81,2.13,7.62.55.41,2.56,1.22,3,1.75.39.46.64,1.02.98,1.51,1.08,1.56,2.96,2.37,4.8,2.87,3.72,1.02,7.95,1.01,11.17-1.12,1.2-.8,2.26-1.95,2.53-3.37.19-.98-.02-2-.34-2.95-1.4-4.11-4.88-7.23-6.38-11.3.7-.39,1.53.21,2.07.8,3.08,3.36,4.94,7.64,7.3,11.54.2.33.47.71.86.71.5,0,.78-.58.9-1.07.7-2.86.5-5.86.19-8.8-.14-1.3-.29-2.59-.47-3.88-.36-2.61-.81-5.21-1.33-7.79.12.61-3.24-.76-3.39-.8-.83-.21-1.7-.25-2.56-.23-2.09.04-4.16.23-6.25,0-2.11-.23-4.18-.73-6.16-1.49-.67-.26-1.38-.55-2.09-.42-.43.08-.82.3-1.19.53-.93.57-1.87,1.13-2.69,1.84-1,.86-1.97,1.71-3.21,2.21-.27.11-.57.18-.85.11-.26-.06-.47-.23-.68-.39-.48-.36-.99-.67-1.53-.94-.51-.25-1.08-.41-1.53-.76-.47-.35-1-.87-1.32-1.36l.46.61Z"/>
        <path class="cls-9" d="M195.35,210.51c-3.72,2.69-16.93,6.23-21.22,5.07-.77-.21-.42-1.41-.48-1.45,3.35-10.47,15.32-21.86,26.47-23.06,7.04-.76,8.16.25,5.49,6.93-1.09,2.73-7.93,10.83-10.27,12.51Z"/>
        <g>
          <path class="cls-2" d="M102.05,81.77c-2.09-4.28-10.24-20.26-3.24-23.14,1.53-.63.93,1.06,1.09,1.77,1.35,6.14,1.94,20.31,10.48,20.69,1.78.08,3.84-.43,4.69-2.22.05.07,1.26-.3,1.47.48.45,1.68-.59,3.94-.74,5.68-.07.79-.53,2.7.71,2.51l2.05-7,10.97-21.2c.28,6.56-4.79,14.45-1.44,20.25-5.18,5.46-3.73,17.91,0,23.87,1.46,4.25,1.6,16.02-5.06,13.74-8.83-2.1-10.67-11.47-10.13-19.52-1.27-.17-.67,1.64-.71,2.52-.43,9.6,2.9,17.81,13.02,19.9,1.48,1.17.76,2.14-2.17,2.89-7.6-4.95-12.44-7.92-13.74-18.08-.04-.28-.37-.69-.5-.95-1.45-2.92-2.09-6.13-3.27-9.16-1.31-3.38-2.14-6.89-2.95-10.4-.1-.44-.19-.87-.28-1.31-.05-.23-.09-.46-.13-.68-.03-.19-.03-.47-.11-.64Z"/>
          <path class="cls-2" d="M186.67,81.05l-.29,3.66c-.88,6.81-1.88,10.03-5.45,17.1l-1.49,3.11c-1.04,8.39-7.1,13.88-13.74,18.08-.17.11-.55-.11-.72,0-2.12.38-2.55-1.9-.72-2.89,9.38-1.41,14.06-13.21,13.01-21.69,0,0-2.33,10.32-2.33,10.32-.16.73-.6,1.5-.93,2.17s-.66,1.26-1.05,1.86c-.68,1.04-1.51,1.98-2.49,2.74-2.04,1.57-4.59,2.15-7.11,2.34-.62.05-1.23.07-1.85.09-.45,0-.82.08-1.23-.12-1.48-.7-1.21-2.24-1.23-3.64-.02-1.08,0-2.16.08-3.23.15-2.15.51-4.3,1.15-6.36.1-.32.37-.79.37-1.11,2.57-3.95,4.15-10.72,3.44-15.38-.14-.94-2.3-7.2-2.72-7.76,2.85-6.27-1.5-13.47-1.44-20.25l9.52,18.32,2.78,9.16,1.44-8.67c6.59,5.96,11.62-.84,13.22-7.39l3.05-12.85c6.5,6.77-.05,15.85-3.25,22.41Z"/>
          <path class="cls-17" d="M170.76,121.55c1.43,4.22-1.07,11.54-2.88,15.56-8.64,19.15-39.09,18.55-47.04-1.44-1.42-3.58-3.69-9.76-2.15-13.4,13.48,6.88,13.59,11.2,31.45,9.39,7.29-.74,10.07-4.69,15.56-7.95,1.19-.7,3.47-1.21,5.06-2.17Z"/>
          <path class="cls-6" d="M164.25,120.1l.72,2.89c-16.1,9.98-25.97,10.42-41.95,0,0,0,.27-1.41.27-1.89q0-1,1-1c11.79,0,28.42,1.73,39.95,0Z"/>
        </g>
        <path class="cls-9" d="M114.3,215.43c-.59.19-1.36.11-1.99.14-.78.03-1.56.04-2.34.02-2.13-.04-4.23-.2-6.3-.74s-4.05-1.27-5.97-2.18c-5.51-2.61-12.82-9.59-14.5-15.51-1.92-6.8.29-6.94,6.72-6,9.69,1.42,21.83,11.5,24.65,20.92.35,1.18,1.02,2.93-.28,3.34Z"/>
      </g>
    </g>
  </g>
</svg>